<svg width="329" height="141" viewBox="0 0 329 141" fill="none" xmlns="http://www.w3.org/2000/svg">
<rect x="0.5" y="0.5" width="327.667" height="139.7" rx="7.5" fill="#F4F6F8"/>
<rect x="0.5" y="0.5" width="327.667" height="139.7" rx="7.5" stroke="#E2E8F0"/>
<path d="M25.75 29.7C26.0052 29.7 26.2148 29.782 26.3789 29.946C26.543 30.1101 26.625 30.3197 26.625 30.575V32.325H29.9062C30.4714 32.3432 30.9362 32.5346 31.3008 32.8992C31.6654 33.2638 31.8568 33.7286 31.875 34.2937V41.7312C31.8568 42.2963 31.6654 42.7611 31.3008 43.1257C30.9362 43.4903 30.4714 43.6817 29.9062 43.7H21.5938C21.0286 43.6817 20.5638 43.4903 20.1992 43.1257C19.8346 42.7611 19.6432 42.2963 19.625 41.7312V34.2937C19.6432 33.7286 19.8346 33.2638 20.1992 32.8992C20.5638 32.5346 21.0286 32.3432 21.5938 32.325H24.875V30.575C24.875 30.3197 24.957 30.1101 25.1211 29.946C25.2852 29.782 25.4948 29.7 25.75 29.7ZM22.6875 40.2C22.4141 40.2182 22.2682 40.364 22.25 40.6375C22.2682 40.9109 22.4141 41.0567 22.6875 41.075H23.5625C23.8359 41.0567 23.9818 40.9109 24 40.6375C23.9818 40.364 23.8359 40.2182 23.5625 40.2H22.6875ZM25.3125 40.2C25.0391 40.2182 24.8932 40.364 24.875 40.6375C24.8932 40.9109 25.0391 41.0567 25.3125 41.075H26.1875C26.4609 41.0567 26.6068 40.9109 26.625 40.6375C26.6068 40.364 26.4609 40.2182 26.1875 40.2H25.3125ZM27.9375 40.2C27.6641 40.2182 27.5182 40.364 27.5 40.6375C27.5182 40.9109 27.6641 41.0567 27.9375 41.075H28.8125C29.0859 41.0567 29.2318 40.9109 29.25 40.6375C29.2318 40.364 29.0859 40.2182 28.8125 40.2H27.9375ZM24.2188 36.7C24.2005 36.2807 24.0182 35.9617 23.6719 35.7429C23.3073 35.5606 22.9427 35.5606 22.5781 35.7429C22.2318 35.9617 22.0495 36.2807 22.0312 36.7C22.0495 37.1192 22.2318 37.4382 22.5781 37.657C22.9427 37.8393 23.3073 37.8393 23.6719 37.657C24.0182 37.4382 24.2005 37.1192 24.2188 36.7ZM28.375 37.7937C28.7943 37.7755 29.1133 37.5932 29.332 37.2468C29.5143 36.8822 29.5143 36.5177 29.332 36.1531C29.1133 35.8067 28.7943 35.6244 28.375 35.6062C27.9557 35.6244 27.6367 35.8067 27.418 36.1531C27.2357 36.5177 27.2357 36.8822 27.418 37.2468C27.6367 37.5932 27.9557 37.7755 28.375 37.7937ZM18.3125 35.825H18.75H18.3125H18.75V41.075H18.3125C17.9479 41.0567 17.638 40.9291 17.3828 40.6921C17.1458 40.4369 17.0182 40.127 17 39.7625V37.1375C17.0182 36.7729 17.1458 36.463 17.3828 36.2078C17.638 35.9708 17.9479 35.8432 18.3125 35.825ZM33.1875 35.825C33.5521 35.8432 33.862 35.9708 34.1172 36.2078C34.3542 36.463 34.4818 36.7729 34.5 37.1375V39.7625C34.4818 40.127 34.3542 40.4369 34.1172 40.6921C33.862 40.9291 33.5521 41.0567 33.1875 41.075H32.75V35.825H33.1875Z" fill="#4F46E5"/>
<rect x="42.5" y="32.7" width="96" height="8" rx="4" fill="#E2E8F0"/>
<rect x="17" y="55.7" width="294.667" height="8" rx="4" fill="#E2E8F0" fill-opacity="0.5"/>
<rect x="17" y="71.7" width="235.72" height="8" rx="4" fill="#E2E8F0" fill-opacity="0.5"/>
<rect x="17" y="87.7" width="245.55" height="8" rx="4" fill="#E2E8F0" fill-opacity="0.5"/>
<rect x="1" y="13.7" width="326.66" height="126" fill="url(#paint0_linear_185_19)"/>
<defs>
<linearGradient id="paint0_linear_185_19" x1="164.33" y1="139.7" x2="164.33" y2="13.7" gradientUnits="userSpaceOnUse">
<stop stop-color="#F4F6F8"/>
<stop offset="1" stop-color="#F4F6F8" stop-opacity="0"/>
</linearGradient>
</defs>
</svg>
