<svg width="329" height="141" viewBox="0 0 329 141" fill="none" xmlns="http://www.w3.org/2000/svg">
<rect x="0.5" y="0.5" width="327.667" height="139.7" rx="7.5" fill="#F4F6F8"/>
<rect x="0.5" y="0.5" width="327.667" height="139.7" rx="7.5" stroke="#E2E8F0"/>
<rect x="1" y="76.2" width="326.67" height="1" fill="#E2E8F0"/>
<g filter="url(#filter0_d_185_72)">
<rect x="132.333" y="33.2" width="64" height="64" rx="32" fill="white" shape-rendering="crispEdges"/>
<rect x="134.333" y="35.2" width="60" height="60" rx="30" stroke="#10B981" stroke-width="4" shape-rendering="crispEdges"/>
<path d="M145.025 72.2L149.579 66.332L149.993 66.764C149.813 66.896 149.639 67.004 149.471 67.088C149.303 67.172 149.123 67.232 148.931 67.268C148.739 67.304 148.535 67.322 148.319 67.322C147.503 67.322 146.777 67.136 146.141 66.764C145.505 66.392 145.001 65.888 144.629 65.252C144.269 64.604 144.089 63.872 144.089 63.056C144.089 62.192 144.287 61.424 144.683 60.752C145.091 60.08 145.643 59.552 146.339 59.168C147.047 58.772 147.851 58.574 148.751 58.574C149.663 58.574 150.467 58.766 151.163 59.15C151.859 59.534 152.405 60.062 152.801 60.734C153.209 61.394 153.413 62.156 153.413 63.02C153.413 63.452 153.365 63.884 153.269 64.316C153.173 64.748 152.999 65.21 152.747 65.702C152.507 66.182 152.159 66.728 151.703 67.34L147.959 72.2H145.025ZM148.751 65.27C149.171 65.27 149.543 65.18 149.867 65C150.203 64.808 150.467 64.544 150.659 64.208C150.851 63.86 150.947 63.47 150.947 63.038C150.947 62.582 150.845 62.186 150.641 61.85C150.449 61.514 150.191 61.25 149.867 61.058C149.543 60.866 149.171 60.77 148.751 60.77C148.343 60.77 147.971 60.866 147.635 61.058C147.299 61.25 147.029 61.514 146.825 61.85C146.633 62.186 146.537 62.582 146.537 63.038C146.537 63.47 146.633 63.86 146.825 64.208C147.029 64.544 147.299 64.808 147.635 65C147.971 65.18 148.343 65.27 148.751 65.27ZM159.849 72.416C158.877 72.416 158.031 72.236 157.311 71.876C156.603 71.504 156.051 71.006 155.655 70.382C155.271 69.758 155.079 69.074 155.079 68.33C155.079 67.454 155.313 66.716 155.781 66.116C156.249 65.504 156.927 65.054 157.815 64.766L157.671 65.36C157.035 65.156 156.531 64.76 156.159 64.172C155.799 63.584 155.619 62.936 155.619 62.228C155.619 61.52 155.799 60.89 156.159 60.338C156.519 59.786 157.017 59.354 157.653 59.042C158.289 58.73 159.021 58.574 159.849 58.574C160.665 58.574 161.385 58.73 162.009 59.042C162.645 59.354 163.143 59.786 163.503 60.338C163.875 60.89 164.061 61.52 164.061 62.228C164.061 62.948 163.875 63.602 163.503 64.19C163.143 64.766 162.645 65.162 162.009 65.378L161.883 64.748C162.771 65.06 163.449 65.522 163.917 66.134C164.385 66.734 164.619 67.472 164.619 68.348C164.619 69.092 164.421 69.776 164.025 70.4C163.641 71.012 163.089 71.504 162.369 71.876C161.661 72.236 160.821 72.416 159.849 72.416ZM159.849 70.346C160.317 70.346 160.725 70.262 161.073 70.094C161.421 69.914 161.691 69.668 161.883 69.356C162.075 69.032 162.171 68.666 162.171 68.258C162.171 67.838 162.075 67.478 161.883 67.178C161.691 66.866 161.421 66.626 161.073 66.458C160.725 66.278 160.317 66.188 159.849 66.188C159.381 66.188 158.973 66.278 158.625 66.458C158.289 66.626 158.025 66.866 157.833 67.178C157.641 67.478 157.545 67.838 157.545 68.258C157.545 68.666 157.641 69.032 157.833 69.356C158.025 69.668 158.289 69.914 158.625 70.094C158.973 70.262 159.381 70.346 159.849 70.346ZM159.849 64.118C160.197 64.118 160.503 64.04 160.767 63.884C161.031 63.728 161.235 63.524 161.379 63.272C161.535 63.008 161.613 62.708 161.613 62.372C161.613 62.036 161.535 61.742 161.379 61.49C161.235 61.226 161.031 61.022 160.767 60.878C160.503 60.722 160.197 60.644 159.849 60.644C159.501 60.644 159.189 60.722 158.913 60.878C158.649 61.022 158.439 61.226 158.283 61.49C158.139 61.742 158.067 62.036 158.067 62.372C158.067 62.708 158.139 63.008 158.283 63.272C158.439 63.524 158.649 63.728 158.913 63.884C159.189 64.04 159.501 64.118 159.849 64.118ZM168.289 72.2L179.161 58.79H181.681L170.809 72.2H168.289ZM170.395 65.594C169.723 65.594 169.117 65.438 168.577 65.126C168.049 64.802 167.629 64.376 167.317 63.848C167.005 63.32 166.849 62.732 166.849 62.084C166.849 61.436 167.005 60.848 167.317 60.32C167.629 59.78 168.049 59.354 168.577 59.042C169.117 58.73 169.717 58.574 170.377 58.574C171.049 58.574 171.649 58.73 172.177 59.042C172.705 59.354 173.125 59.78 173.437 60.32C173.749 60.848 173.905 61.436 173.905 62.084C173.905 62.732 173.749 63.32 173.437 63.848C173.125 64.376 172.705 64.802 172.177 65.126C171.649 65.438 171.055 65.594 170.395 65.594ZM170.377 63.776C170.737 63.776 171.037 63.698 171.277 63.542C171.517 63.374 171.697 63.164 171.817 62.912C171.949 62.648 172.015 62.372 172.015 62.084C172.015 61.784 171.949 61.508 171.817 61.256C171.697 61.004 171.517 60.794 171.277 60.626C171.037 60.458 170.737 60.374 170.377 60.374C170.041 60.374 169.747 60.458 169.495 60.626C169.255 60.794 169.069 61.01 168.937 61.274C168.805 61.526 168.739 61.796 168.739 62.084C168.739 62.36 168.805 62.63 168.937 62.894C169.069 63.158 169.255 63.374 169.495 63.542C169.747 63.698 170.041 63.776 170.377 63.776ZM179.521 72.416C178.861 72.416 178.261 72.26 177.721 71.948C177.193 71.624 176.773 71.198 176.461 70.67C176.149 70.142 175.993 69.554 175.993 68.906C175.993 68.258 176.149 67.67 176.461 67.142C176.773 66.602 177.193 66.176 177.721 65.864C178.261 65.552 178.861 65.396 179.521 65.396C180.193 65.396 180.793 65.552 181.321 65.864C181.849 66.176 182.269 66.602 182.581 67.142C182.893 67.67 183.049 68.258 183.049 68.906C183.049 69.554 182.893 70.142 182.581 70.67C182.269 71.198 181.849 71.624 181.321 71.948C180.793 72.26 180.193 72.416 179.521 72.416ZM179.521 70.598C179.869 70.598 180.163 70.52 180.403 70.364C180.655 70.196 180.841 69.986 180.961 69.734C181.093 69.47 181.159 69.194 181.159 68.906C181.159 68.606 181.093 68.33 180.961 68.078C180.841 67.826 180.655 67.616 180.403 67.448C180.163 67.28 179.869 67.196 179.521 67.196C179.185 67.196 178.891 67.28 178.639 67.448C178.399 67.616 178.213 67.832 178.081 68.096C177.949 68.348 177.883 68.618 177.883 68.906C177.883 69.182 177.949 69.452 178.081 69.716C178.213 69.98 178.399 70.196 178.639 70.364C178.891 70.52 179.185 70.598 179.521 70.598Z" fill="#10B981"/>
</g>
<path d="M117.443 117.2L120.013 109.75H121.773L124.343 117.2H122.863L122.333 115.6H119.453L118.913 117.2H117.443ZM119.843 114.4H121.943L120.703 110.69H121.083L119.843 114.4ZM125.994 117.2V110.95H124.064V109.75H129.264V110.95H127.364V117.2H125.994ZM132.754 117.32C132.281 117.32 131.841 117.233 131.434 117.06C131.034 116.887 130.688 116.647 130.394 116.34C130.108 116.027 129.898 115.663 129.764 115.25L130.894 114.76C131.074 115.187 131.334 115.523 131.674 115.77C132.014 116.01 132.398 116.13 132.824 116.13C133.064 116.13 133.271 116.093 133.444 116.02C133.624 115.94 133.761 115.833 133.854 115.7C133.954 115.567 134.004 115.407 134.004 115.22C134.004 115 133.938 114.82 133.804 114.68C133.678 114.533 133.484 114.42 133.224 114.34L131.794 113.88C131.214 113.7 130.778 113.43 130.484 113.07C130.191 112.71 130.044 112.287 130.044 111.8C130.044 111.373 130.148 110.997 130.354 110.67C130.568 110.343 130.861 110.09 131.234 109.91C131.614 109.723 132.048 109.63 132.534 109.63C132.981 109.63 133.391 109.71 133.764 109.87C134.138 110.023 134.458 110.24 134.724 110.52C134.998 110.793 135.201 111.117 135.334 111.49L134.214 111.99C134.068 111.617 133.848 111.33 133.554 111.13C133.261 110.923 132.921 110.82 132.534 110.82C132.308 110.82 132.108 110.86 131.934 110.94C131.761 111.013 131.624 111.12 131.524 111.26C131.431 111.393 131.384 111.553 131.384 111.74C131.384 111.947 131.451 112.13 131.584 112.29C131.718 112.443 131.921 112.563 132.194 112.65L133.564 113.08C134.158 113.273 134.601 113.54 134.894 113.88C135.194 114.22 135.344 114.64 135.344 115.14C135.344 115.567 135.234 115.943 135.014 116.27C134.794 116.597 134.491 116.853 134.104 117.04C133.718 117.227 133.268 117.32 132.754 117.32ZM138.346 117.2V109.75H139.646L142.436 113.54H141.816L144.546 109.75H145.846V117.2H144.476V111.3L145.006 111.43L142.176 115.2H142.016L139.256 111.43L139.706 111.3V117.2H138.346ZM146.662 117.2L149.232 109.75H150.992L153.562 117.2H152.082L151.552 115.6H148.672L148.132 117.2H146.662ZM149.062 114.4H151.162L149.922 110.69H150.302L149.062 114.4ZM155.213 117.2V110.95H153.283V109.75H158.483V110.95H156.583V117.2H155.213ZM162.51 117.32C161.977 117.32 161.484 117.223 161.03 117.03C160.584 116.837 160.19 116.567 159.85 116.22C159.517 115.873 159.257 115.467 159.07 115C158.884 114.533 158.79 114.023 158.79 113.47C158.79 112.917 158.88 112.407 159.06 111.94C159.247 111.467 159.507 111.06 159.84 110.72C160.18 110.373 160.577 110.107 161.03 109.92C161.484 109.727 161.977 109.63 162.51 109.63C163.044 109.63 163.52 109.72 163.94 109.9C164.367 110.08 164.727 110.32 165.02 110.62C165.314 110.913 165.524 111.237 165.65 111.59L164.43 112.16C164.29 111.787 164.054 111.48 163.72 111.24C163.387 110.993 162.984 110.87 162.51 110.87C162.044 110.87 161.63 110.98 161.27 111.2C160.917 111.42 160.64 111.723 160.44 112.11C160.247 112.497 160.15 112.95 160.15 113.47C160.15 113.99 160.247 114.447 160.44 114.84C160.64 115.227 160.917 115.53 161.27 115.75C161.63 115.97 162.044 116.08 162.51 116.08C162.984 116.08 163.387 115.96 163.72 115.72C164.054 115.473 164.29 115.163 164.43 114.79L165.65 115.36C165.524 115.713 165.314 116.04 165.02 116.34C164.727 116.633 164.367 116.87 163.94 117.05C163.52 117.23 163.044 117.32 162.51 117.32ZM166.755 117.2V109.75H168.115V113H171.285V109.75H172.655V117.2H171.285V114.2H168.115V117.2H166.755ZM178.526 117.32C178.053 117.32 177.613 117.233 177.206 117.06C176.806 116.887 176.459 116.647 176.166 116.34C175.879 116.027 175.669 115.663 175.536 115.25L176.666 114.76C176.846 115.187 177.106 115.523 177.446 115.77C177.786 116.01 178.169 116.13 178.596 116.13C178.836 116.13 179.043 116.093 179.216 116.02C179.396 115.94 179.533 115.833 179.626 115.7C179.726 115.567 179.776 115.407 179.776 115.22C179.776 115 179.709 114.82 179.576 114.68C179.449 114.533 179.256 114.42 178.996 114.34L177.566 113.88C176.986 113.7 176.549 113.43 176.256 113.07C175.963 112.71 175.816 112.287 175.816 111.8C175.816 111.373 175.919 110.997 176.126 110.67C176.339 110.343 176.633 110.09 177.006 109.91C177.386 109.723 177.819 109.63 178.306 109.63C178.753 109.63 179.163 109.71 179.536 109.87C179.909 110.023 180.229 110.24 180.496 110.52C180.769 110.793 180.973 111.117 181.106 111.49L179.986 111.99C179.839 111.617 179.619 111.33 179.326 111.13C179.033 110.923 178.693 110.82 178.306 110.82C178.079 110.82 177.879 110.86 177.706 110.94C177.533 111.013 177.396 111.12 177.296 111.26C177.203 111.393 177.156 111.553 177.156 111.74C177.156 111.947 177.223 112.13 177.356 112.29C177.489 112.443 177.693 112.563 177.966 112.65L179.336 113.08C179.929 113.273 180.373 113.54 180.666 113.88C180.966 114.22 181.116 114.64 181.116 115.14C181.116 115.567 181.006 115.943 180.786 116.27C180.566 116.597 180.263 116.853 179.876 117.04C179.489 117.227 179.039 117.32 178.526 117.32ZM185.84 117.32C185.307 117.32 184.814 117.223 184.36 117.03C183.914 116.837 183.52 116.567 183.18 116.22C182.847 115.873 182.587 115.467 182.4 115C182.214 114.533 182.12 114.023 182.12 113.47C182.12 112.917 182.21 112.407 182.39 111.94C182.577 111.467 182.837 111.06 183.17 110.72C183.51 110.373 183.907 110.107 184.36 109.92C184.814 109.727 185.307 109.63 185.84 109.63C186.374 109.63 186.85 109.72 187.27 109.9C187.697 110.08 188.057 110.32 188.35 110.62C188.644 110.913 188.854 111.237 188.98 111.59L187.76 112.16C187.62 111.787 187.384 111.48 187.05 111.24C186.717 110.993 186.314 110.87 185.84 110.87C185.374 110.87 184.96 110.98 184.6 111.2C184.247 111.42 183.97 111.723 183.77 112.11C183.577 112.497 183.48 112.95 183.48 113.47C183.48 113.99 183.577 114.447 183.77 114.84C183.97 115.227 184.247 115.53 184.6 115.75C184.96 115.97 185.374 116.08 185.84 116.08C186.314 116.08 186.717 115.96 187.05 115.72C187.384 115.473 187.62 115.163 187.76 114.79L188.98 115.36C188.854 115.713 188.644 116.04 188.35 116.34C188.057 116.633 187.697 116.87 187.27 117.05C186.85 117.23 186.374 117.32 185.84 117.32ZM193.755 117.32C193.208 117.32 192.698 117.223 192.225 117.03C191.751 116.837 191.338 116.567 190.985 116.22C190.631 115.873 190.355 115.467 190.155 115C189.961 114.527 189.865 114.017 189.865 113.47C189.865 112.917 189.961 112.407 190.155 111.94C190.348 111.473 190.621 111.067 190.975 110.72C191.328 110.373 191.741 110.107 192.215 109.92C192.688 109.727 193.201 109.63 193.755 109.63C194.308 109.63 194.821 109.727 195.295 109.92C195.768 110.113 196.181 110.383 196.535 110.73C196.888 111.07 197.161 111.473 197.355 111.94C197.555 112.407 197.655 112.917 197.655 113.47C197.655 114.017 197.555 114.527 197.355 115C197.155 115.467 196.878 115.873 196.525 116.22C196.171 116.567 195.758 116.837 195.285 117.03C194.818 117.223 194.308 117.32 193.755 117.32ZM193.755 116.08C194.121 116.08 194.458 116.017 194.765 115.89C195.071 115.757 195.338 115.573 195.565 115.34C195.798 115.107 195.975 114.83 196.095 114.51C196.221 114.19 196.285 113.843 196.285 113.47C196.285 113.097 196.221 112.753 196.095 112.44C195.975 112.12 195.798 111.843 195.565 111.61C195.338 111.37 195.071 111.187 194.765 111.06C194.458 110.933 194.121 110.87 193.755 110.87C193.395 110.87 193.061 110.933 192.755 111.06C192.448 111.187 192.178 111.37 191.945 111.61C191.718 111.843 191.541 112.12 191.415 112.44C191.288 112.753 191.225 113.097 191.225 113.47C191.225 113.843 191.288 114.19 191.415 114.51C191.541 114.83 191.718 115.107 191.945 115.34C192.178 115.573 192.448 115.757 192.755 115.89C193.061 116.017 193.395 116.08 193.755 116.08ZM198.864 117.2V109.75H201.634C202.141 109.75 202.587 109.843 202.974 110.03C203.367 110.21 203.674 110.477 203.894 110.83C204.114 111.177 204.224 111.6 204.224 112.1C204.224 112.613 204.101 113.05 203.854 113.41C203.614 113.77 203.287 114.037 202.874 114.21L204.584 117.2H203.044L201.214 113.93L202.094 114.45H200.224V117.2H198.864ZM200.224 113.25H201.654C201.901 113.25 202.114 113.203 202.294 113.11C202.474 113.01 202.614 112.873 202.714 112.7C202.814 112.527 202.864 112.327 202.864 112.1C202.864 111.867 202.814 111.667 202.714 111.5C202.614 111.327 202.474 111.193 202.294 111.1C202.114 111 201.901 110.95 201.654 110.95H200.224V113.25ZM205.475 117.2V109.75H210.425V110.95H206.835V112.86H210.225V114.06H206.835V116H210.425V117.2H205.475Z" fill="#64748B"/>
<defs>
<filter id="filter0_d_185_72" x="130.333" y="32.2" width="68" height="68" filterUnits="userSpaceOnUse" color-interpolation-filters="sRGB">
<feFlood flood-opacity="0" result="BackgroundImageFix"/>
<feColorMatrix in="SourceAlpha" type="matrix" values="0 0 0 0 0 0 0 0 0 0 0 0 0 0 0 0 0 0 127 0" result="hardAlpha"/>
<feOffset dy="1"/>
<feGaussianBlur stdDeviation="1"/>
<feComposite in2="hardAlpha" operator="out"/>
<feColorMatrix type="matrix" values="0 0 0 0 0 0 0 0 0 0 0 0 0 0 0 0 0 0 0.05 0"/>
<feBlend mode="normal" in2="BackgroundImageFix" result="effect1_dropShadow_185_72"/>
<feBlend mode="normal" in="SourceGraphic" in2="effect1_dropShadow_185_72" result="shape"/>
</filter>
</defs>
</svg>
