<svg width="329" height="141" viewBox="0 0 329 141" fill="none" xmlns="http://www.w3.org/2000/svg">
<rect x="0.5" y="0.5" width="327.667" height="139.7" rx="7.5" fill="#F4F6F8"/>
<rect x="0.5" y="0.5" width="327.667" height="139.7" rx="7.5" stroke="#E2E8F0"/>
<g opacity="0.7">
<rect x="9.5" y="22.2" width="150.333" height="109" rx="3.5" fill="white"/>
<rect x="9.5" y="22.2" width="150.333" height="109" rx="3.5" stroke="#E2E8F0"/>
<rect x="18" y="30.7" width="48" height="6" rx="3" fill="#E2E8F0"/>
<rect x="18" y="44.7" width="133.333" height="4" rx="2" fill="#E2E8F0" fill-opacity="0.5"/>
<rect x="18" y="52.7" width="106.66" height="4" rx="2" fill="#E2E8F0" fill-opacity="0.5"/>
</g>
<g filter="url(#filter0_d_185_39)">
<rect x="168.333" y="21.7" width="151.333" height="110" rx="4" fill="white" shape-rendering="crispEdges"/>
<rect x="168.833" y="22.2" width="150.333" height="109" rx="3.5" stroke="#4F46E5" shape-rendering="crispEdges"/>
<rect x="177.333" y="30.7" width="48" height="6" rx="3" fill="#4F46E5" fill-opacity="0.4"/>
<rect x="177.333" y="44.7" width="133.333" height="4" rx="2" fill="#0F172A" fill-opacity="0.2"/>
<rect x="177.333" y="52.7" width="106.66" height="4" rx="2" fill="#0F172A" fill-opacity="0.2"/>
<rect x="311.653" y="19.7" width="10" height="10" rx="5" fill="#4F46E5" stroke="white" stroke-width="2"/>
</g>
<defs>
<filter id="filter0_d_185_39" x="166.333" y="17.7" width="158.32" height="117" filterUnits="userSpaceOnUse" color-interpolation-filters="sRGB">
<feFlood flood-opacity="0" result="BackgroundImageFix"/>
<feColorMatrix in="SourceAlpha" type="matrix" values="0 0 0 0 0 0 0 0 0 0 0 0 0 0 0 0 0 0 127 0" result="hardAlpha"/>
<feOffset dy="1"/>
<feGaussianBlur stdDeviation="1"/>
<feComposite in2="hardAlpha" operator="out"/>
<feColorMatrix type="matrix" values="0 0 0 0 0 0 0 0 0 0 0 0 0 0 0 0 0 0 0.05 0"/>
<feBlend mode="normal" in2="BackgroundImageFix" result="effect1_dropShadow_185_39"/>
<feBlend mode="normal" in="SourceGraphic" in2="effect1_dropShadow_185_39" result="shape"/>
</filter>
</defs>
</svg>
