<svg width="18" height="18" viewBox="0 0 18 18" fill="none" xmlns="http://www.w3.org/2000/svg">
<path d="M13.3984 2.14844C13.6328 1.88802 13.75 1.58854 13.75 1.25C13.75 0.911458 13.6328 0.611979 13.3984 0.351562C13.138 0.117188 12.8385 0 12.5 0C12.1615 0 11.862 0.117188 11.6016 0.351562L6.25 5.74219L4.02344 3.47656C3.76302 3.24219 3.46354 3.125 3.125 3.125C2.78646 3.125 2.48698 3.24219 2.22656 3.47656C1.99219 3.73698 1.875 4.03646 1.875 4.375C1.875 4.71354 1.99219 5.01302 2.22656 5.27344L5.35156 8.39844C5.61198 8.63281 5.91146 8.75 6.25 8.75C6.58854 8.75 6.88802 8.63281 7.14844 8.39844L13.3984 2.14844ZM17.1484 7.14844C17.3828 6.88802 17.5 6.58854 17.5 6.25C17.5 5.91146 17.3828 5.61198 17.1484 5.35156C16.888 5.11719 16.5885 5 16.25 5C15.9115 5 15.612 5.11719 15.3516 5.35156L6.25 14.4922L2.14844 10.3516C1.88802 10.1172 1.58854 10 1.25 10C0.911458 10 0.611979 10.1172 0.351562 10.3516C0.117188 10.612 0 10.9115 0 11.25C0 11.5885 0.117188 11.888 0.351562 12.1484L5.35156 17.1484C5.61198 17.3828 5.91146 17.5 6.25 17.5C6.58854 17.5 6.88802 17.3828 7.14844 17.1484L17.1484 7.14844Z" fill="currentColor"/>
</svg>
